<svg xmlns="http://www.w3.org/2000/svg" viewBox="0 0 32 32" fill="none">
  <rect width="32" height="32" rx="6" fill="#18181b"/>
  <path d="M8 7h12a1 1 0 0 1 .7.3l3 3a1 1 0 0 1 .3.7V25a2 2 0 0 1-2 2H8a2 2 0 0 1-2-2V9a2 2 0 0 1 2-2z" fill="#27272a" stroke="#3f3f46" stroke-width="0.5"/>
  <path d="M10 14h12M10 18h12M10 22h8" stroke="#71717a" stroke-width="1.5" stroke-linecap="round"/>
  <path d="M19 7v4h4" stroke="#3f3f46" stroke-width="0.5" fill="#3f3f46"/>
  <text x="16" y="12" text-anchor="middle" font-size="5" font-family="system-ui" font-weight="700" fill="#a1a1aa">$</text>
</svg>
